<svg width="169" height="21" viewBox="0 0 169 21" fill="none" xmlns="http://www.w3.org/2000/svg">
<path fill-rule="evenodd" clip-rule="evenodd" d="M107.351 15.6962V19.3355H92.0778V15.6962L97.3568 11.5313H98.2031L97.7598 14.4023H106.222L107.351 15.6962ZM98.6062 13.6744H106.552L108.076 15.4228V20.0634H91.3524V15.3426L97.1058 10.8034H99.0495L98.6062 13.6744Z" fill="#2A2925"/>
<path fill-rule="evenodd" clip-rule="evenodd" d="M92.0778 5.12438V1.52646H107.351V5.12438L102.072 9.24201H101.225L101.669 6.40364H93.2061L92.0778 5.12438ZM100.822 7.12323H92.877L91.3524 5.39476V0.80687H108.076V5.47397L102.323 9.9616H100.379L100.822 7.12323Z" fill="#2A2925"/>
<path fill-rule="evenodd" clip-rule="evenodd" d="M107.547 5.43683H91.67V4.80547H107.547V5.43683Z" fill="#2A2925"/>
<path fill-rule="evenodd" clip-rule="evenodd" d="M107.547 16.0647H91.67V15.4334H107.547V16.0647Z" fill="#2A2925"/>
<path d="M126.636 0.821243V4.58691L122.616 0.821243H126.636Z" fill="#2A2925"/>
<path fill-rule="evenodd" clip-rule="evenodd" d="M152.125 2.99918V16.3147H155.186V-1.52588e-05L152.125 2.99918ZM111.882 7.48445H117.432L111.482 13.4422V16.3147H118.607L121.538 13.4422H115.442L121.413 7.48445V4.61197H114.813L111.882 7.48445ZM123.573 16.3147V7.61224L126.634 4.61305V16.3147H123.573ZM132.152 6.65462C132.88 5.12262 134.164 4.35663 135.833 4.35663C136.112 4.35663 136.326 4.37791 136.518 4.39919V7.527C136.485 7.52404 136.454 7.52109 136.423 7.51818C136.232 7.50022 136.064 7.48445 135.769 7.48445C133.821 7.48445 132.152 8.33554 132.152 11.1016V16.3147H129.091V4.61197H132.152V6.65462ZM137.696 10.4633C137.696 6.93123 140.436 4.35663 143.817 4.35663C147.22 4.35663 149.96 6.93123 149.96 10.4633C149.96 13.9954 147.263 16.5699 143.817 16.5699C140.393 16.5699 137.696 13.9741 137.696 10.4633ZM146.857 10.4633C146.857 8.54832 145.53 7.25039 143.817 7.25039C142.105 7.25039 140.778 8.54832 140.778 10.4633C140.778 12.3996 142.105 13.6762 143.817 13.6762C145.53 13.6762 146.857 12.3996 146.857 10.4633ZM165.348 4.61197V10.7612C165.348 12.6762 164.428 13.6762 162.737 13.6762C161.153 13.6762 160.575 12.8251 160.575 11.2931V4.61197H157.515V11.9528C157.515 14.8039 159.12 16.5699 161.709 16.5699C163.336 16.5699 164.492 15.8891 165.348 14.6975V16.3147H168.409V4.61197H165.348Z" fill="#2A2925"/>
<path d="M79.5209 15.7264L81.0971 12.7422L81.0235 13.5724L77.9027 7.7301H79.8572L81.2967 10.6933C81.4158 10.9104 81.5244 11.1346 81.6225 11.3657C81.7275 11.5899 81.8151 11.8176 81.8851 12.0487L81.5174 12.0908C81.5944 11.9086 81.682 11.6985 81.7801 11.4603C81.8781 11.2221 81.9832 10.9805 82.0953 10.7353L83.4718 7.7301H85.3947L82.4526 13.3517L81.2442 15.7264H79.5209Z" fill="black"/>
<path d="M74.4343 13.4253C74.098 13.4253 73.7863 13.3833 73.4991 13.2992C73.2119 13.2151 72.9562 13.1065 72.732 12.9735C72.5079 12.8404 72.3222 12.6932 72.1751 12.5321C72.035 12.371 71.9439 12.2169 71.9019 12.0698L72.4063 12.0067L72.3117 13.2992H70.7461V5.53404H72.4378V9.06461L71.9544 9.00156C72.0035 8.83344 72.0981 8.66882 72.2382 8.5077C72.3853 8.34659 72.5674 8.19948 72.7846 8.06638C73.0087 7.92628 73.2609 7.8177 73.5411 7.74065C73.8283 7.65659 74.133 7.61455 74.4553 7.61455C75.0157 7.61455 75.5165 7.74065 75.9579 7.99283C76.4062 8.23801 76.7634 8.58126 77.0296 9.02258C77.2958 9.4569 77.4289 9.95426 77.4289 10.5147C77.4289 11.0821 77.2993 11.5864 77.0401 12.0278C76.781 12.4621 76.4272 12.8053 75.9789 13.0575C75.5306 13.3027 75.0157 13.4253 74.4343 13.4253ZM74.056 11.9962C74.4062 11.9962 74.7075 11.9332 74.9596 11.8071C75.2188 11.681 75.4185 11.5094 75.5586 11.2922C75.7057 11.0681 75.7792 10.8089 75.7792 10.5147C75.7792 10.2205 75.7057 9.96476 75.5586 9.74761C75.4185 9.52344 75.2188 9.35182 74.9596 9.23273C74.7004 9.11365 74.3992 9.0541 74.056 9.0541C73.7057 9.0541 73.3975 9.11365 73.1313 9.23273C72.8721 9.35182 72.669 9.52344 72.5219 9.74761C72.3818 9.96476 72.3117 10.2205 72.3117 10.5147C72.3117 10.8089 72.3818 11.0681 72.5219 11.2922C72.669 11.5094 72.8721 11.681 73.1313 11.8071C73.3975 11.9332 73.7057 11.9962 74.056 11.9962Z" fill="black"/>
<path d="M61.1483 13.4253C60.5669 13.4253 60.059 13.3027 59.6247 13.0575C59.1904 12.8123 58.8506 12.4691 58.6055 12.0278C58.3603 11.5864 58.2377 11.0856 58.2377 10.5252C58.2377 9.95776 58.3638 9.4569 58.616 9.02258C58.8682 8.58126 59.2184 8.23801 59.6667 7.99283C60.1221 7.74065 60.6439 7.61455 61.2324 7.61455C61.5686 7.61455 61.8803 7.65659 62.1676 7.74065C62.4618 7.8177 62.721 7.92628 62.9451 8.06638C63.1763 8.19948 63.3584 8.35009 63.4915 8.51821C63.6316 8.68634 63.7122 8.85796 63.7332 9.03309L63.3339 9.12766V5.53404H65.0256V13.3097H63.46L63.3654 11.9017L63.7017 12.0067C63.6806 12.1819 63.5966 12.3535 63.4495 12.5216C63.3094 12.6897 63.1237 12.8404 62.8926 12.9735C62.6614 13.1065 62.3952 13.2151 62.094 13.2992C61.7998 13.3833 61.4846 13.4253 61.1483 13.4253ZM61.6422 11.9857C61.9924 11.9857 62.2971 11.9262 62.5563 11.8071C62.8225 11.681 63.0257 11.5094 63.1658 11.2922C63.3059 11.0681 63.3759 10.8124 63.3759 10.5252C63.3759 10.231 63.3059 9.97527 63.1658 9.75811C63.0257 9.54096 62.8225 9.36933 62.5563 9.24324C62.2971 9.11715 61.9924 9.0541 61.6422 9.0541C61.2919 9.0541 60.9872 9.11715 60.728 9.24324C60.4758 9.36933 60.2762 9.54096 60.1291 9.75811C59.982 9.97527 59.9084 10.231 59.9084 10.5252C59.9084 10.8124 59.982 11.0681 60.1291 11.2922C60.2762 11.5094 60.4758 11.681 60.728 11.8071C60.9872 11.9262 61.2919 11.9857 61.6422 11.9857Z" fill="black"/>
<path d="M54.3957 13.4148C53.6812 13.4148 53.0542 13.2922 52.5148 13.047C51.9754 12.7948 51.5551 12.4516 51.2539 12.0172C50.9597 11.5829 50.8126 11.0926 50.8126 10.5462C50.8126 10.0978 50.9001 9.69505 51.0753 9.33779C51.2574 8.98053 51.4991 8.6758 51.8003 8.42362C52.1085 8.16443 52.4693 7.96479 52.8826 7.82469C53.2959 7.68458 53.7302 7.61453 54.1855 7.61453C54.6479 7.61453 55.0717 7.68458 55.4569 7.82469C55.8492 7.96479 56.189 8.16093 56.4762 8.41311C56.7704 8.65829 56.9946 8.95251 57.1487 9.29576C57.3098 9.63901 57.3833 10.0173 57.3693 10.4306L57.3588 10.9244H51.9684L51.7267 9.9052H55.9928L55.8142 10.1364V9.92621C55.7862 9.73708 55.6986 9.57246 55.5515 9.43236C55.4044 9.29225 55.2153 9.18367 54.9841 9.10662C54.7529 9.02256 54.4937 8.98053 54.2065 8.98053C53.8633 8.98053 53.5551 9.03306 53.2819 9.13814C53.0087 9.23621 52.7915 9.39383 52.6304 9.61098C52.4693 9.82114 52.3887 10.0908 52.3887 10.4201C52.3887 10.7213 52.4798 10.991 52.6619 11.2292C52.8511 11.4673 53.1137 11.6565 53.45 11.7966C53.7862 11.9297 54.1855 11.9962 54.6479 11.9962C55.0752 11.9962 55.4254 11.9472 55.6986 11.8491C55.9788 11.744 56.21 11.6355 56.3921 11.5234L57.1277 12.6057C56.8825 12.7808 56.6128 12.9279 56.3186 13.047C56.0244 13.1661 55.7161 13.2571 55.3939 13.3202C55.0717 13.3832 54.7389 13.4148 54.3957 13.4148Z" fill="black"/>
<path d="M43.2005 15.6214V7.71963H44.7976L44.8712 8.98055L44.5454 8.88598C44.6015 8.66882 44.7451 8.46567 44.9762 8.27653C45.2074 8.0874 45.4981 7.93328 45.8484 7.8142C46.2056 7.68811 46.5944 7.62506 47.0147 7.62506C47.5962 7.62506 48.1075 7.74765 48.5488 7.99283C48.9902 8.23801 49.3334 8.57775 49.5786 9.01207C49.8238 9.43938 49.9464 9.94024 49.9464 10.5147C49.9464 11.0821 49.8203 11.5829 49.5681 12.0173C49.3229 12.4516 48.9762 12.7913 48.5278 13.0365C48.0865 13.2817 47.5786 13.4043 47.0042 13.4043C46.5699 13.4043 46.1741 13.3412 45.8169 13.2151C45.4666 13.082 45.1759 12.9139 44.9447 12.7108C44.7136 12.5076 44.5664 12.2975 44.5034 12.0803L44.8922 11.9332V15.6214H43.2005ZM46.5839 11.9857C46.9342 11.9857 47.2354 11.9262 47.4876 11.8071C47.7468 11.681 47.9464 11.5094 48.0865 11.2922C48.2336 11.0681 48.3072 10.8089 48.3072 10.5147C48.3072 10.2204 48.2336 9.96476 48.0865 9.7476C47.9464 9.52344 47.7468 9.35182 47.4876 9.23273C47.2354 9.10664 46.9342 9.04359 46.5839 9.04359C46.2407 9.04359 45.9359 9.10664 45.6698 9.23273C45.4106 9.35882 45.2074 9.53395 45.0603 9.75811C44.9132 9.97527 44.8396 10.2275 44.8396 10.5147C44.8396 10.8089 44.9132 11.0681 45.0603 11.2922C45.2074 11.5094 45.4106 11.681 45.6698 11.8071C45.9359 11.9262 46.2407 11.9857 46.5839 11.9857Z" fill="black"/>
<path d="M38.039 13.4148C37.3455 13.4148 36.729 13.2922 36.1896 13.047C35.6572 12.7948 35.2404 12.4516 34.9392 12.0172C34.638 11.5759 34.4874 11.075 34.4874 10.5146C34.4874 9.94723 34.638 9.44637 34.9392 9.01205C35.2404 8.57773 35.6572 8.23799 36.1896 7.99281C36.729 7.74062 37.3455 7.61453 38.039 7.61453C38.7255 7.61453 39.3349 7.74062 39.8673 7.99281C40.3997 8.23799 40.8165 8.57773 41.1177 9.01205C41.4189 9.44637 41.5695 9.94723 41.5695 10.5146C41.5695 11.075 41.4189 11.5759 41.1177 12.0172C40.8165 12.4516 40.3997 12.7948 39.8673 13.047C39.3349 13.2922 38.7255 13.4148 38.039 13.4148ZM38.039 11.9647C38.3752 11.9647 38.6835 11.9052 38.9637 11.7861C39.2439 11.66 39.4645 11.4884 39.6256 11.2712C39.7938 11.054 39.8743 10.8019 39.8673 10.5146C39.8743 10.2274 39.7938 9.97525 39.6256 9.75809C39.4645 9.53393 39.2439 9.3623 38.9637 9.24322C38.6835 9.11713 38.3752 9.05408 38.039 9.05408C37.6957 9.05408 37.3805 9.11713 37.0933 9.24322C36.8061 9.3623 36.5819 9.53393 36.4208 9.75809C36.2667 9.97525 36.1896 10.2274 36.1896 10.5146C36.1896 10.8019 36.2667 11.054 36.4208 11.2712C36.5819 11.4884 36.8061 11.66 37.0933 11.7861C37.3805 11.9052 37.6957 11.9647 38.039 11.9647Z" fill="black"/>
<path d="M31.2849 13.3097V5.53404H32.9662V13.3097H31.2849Z" fill="black"/>
<path d="M26.6654 13.4148C25.9508 13.4148 25.3239 13.2922 24.7845 13.047C24.2451 12.7948 23.8248 12.4516 23.5236 12.0172C23.2294 11.5829 23.0823 11.0926 23.0823 10.5462C23.0823 10.0978 23.1698 9.69505 23.3449 9.33779C23.5271 8.98053 23.7688 8.6758 24.07 8.42362C24.3782 8.16443 24.739 7.96479 25.1523 7.82469C25.5656 7.68458 25.9999 7.61453 26.4552 7.61453C26.9175 7.61453 27.3413 7.68458 27.7266 7.82469C28.1189 7.96479 28.4587 8.16093 28.7459 8.41311C29.0401 8.65829 29.2642 8.95251 29.4184 9.29576C29.5795 9.63901 29.653 10.0173 29.639 10.4306L29.6285 10.9244H24.2381L23.9964 9.9052H28.2625L28.0839 10.1364V9.92621C28.0559 9.73708 27.9683 9.57246 27.8212 9.43236C27.6741 9.29225 27.485 9.18367 27.2538 9.10662C27.0226 9.02256 26.7634 8.98053 26.4762 8.98053C26.133 8.98053 25.8247 9.03306 25.5515 9.13814C25.2783 9.23621 25.0612 9.39383 24.9001 9.61098C24.739 9.82114 24.6584 10.0908 24.6584 10.4201C24.6584 10.7213 24.7495 10.991 24.9316 11.2292C25.1207 11.4673 25.3834 11.6565 25.7197 11.7966C26.0559 11.9297 26.4552 11.9962 26.9175 11.9962C27.3449 11.9962 27.6951 11.9472 27.9683 11.8491C28.2485 11.744 28.4797 11.6355 28.6618 11.5234L29.3973 12.6057C29.1522 12.7808 28.8825 12.9279 28.5883 13.047C28.294 13.1661 27.9858 13.2571 27.6636 13.3202C27.3413 13.3832 27.0086 13.4148 26.6654 13.4148Z" fill="black"/>
<path d="M18.4788 13.3097L15.6312 7.7301H17.5646L19.4875 12.0487L19.0146 12.0908L20.9796 7.7301H22.8815L19.9393 13.3097H18.4788Z" fill="black"/>
<path d="M12.1229 13.4148C11.4084 13.4148 10.7815 13.2922 10.2421 13.047C9.70269 12.7948 9.28238 12.4516 8.98116 12.0172C8.68695 11.5829 8.53984 11.0926 8.53984 10.5462C8.53984 10.0978 8.6274 9.69505 8.80253 9.33779C8.98466 8.98053 9.22634 8.6758 9.52756 8.42362C9.83578 8.16443 10.1965 7.96479 10.6098 7.82469C11.0231 7.68458 11.4575 7.61453 11.9128 7.61453C12.3751 7.61453 12.7989 7.68458 13.1842 7.82469C13.5765 7.96479 13.9163 8.16093 14.2035 8.41311C14.4977 8.65829 14.7218 8.95251 14.8759 9.29576C15.0371 9.63901 15.1106 10.0173 15.0966 10.4306L15.0861 10.9244H9.69568L9.45401 9.9052H13.7201L13.5415 10.1364V9.92621C13.5135 9.73708 13.4259 9.57246 13.2788 9.43236C13.1317 9.29225 12.9425 9.18367 12.7114 9.10662C12.4802 9.02256 12.221 8.98053 11.9338 8.98053C11.5906 8.98053 11.2823 9.03306 11.0091 9.13814C10.7359 9.23621 10.5188 9.39383 10.3577 9.61098C10.1965 9.82114 10.116 10.0908 10.116 10.4201C10.116 10.7213 10.2071 10.991 10.3892 11.2292C10.5783 11.4673 10.841 11.6565 11.1773 11.7966C11.5135 11.9297 11.9128 11.9962 12.3751 11.9962C12.8024 11.9962 13.1527 11.9472 13.4259 11.8491C13.7061 11.744 13.9373 11.6355 14.1194 11.5234L14.8549 12.6057C14.6098 12.7808 14.3401 12.9279 14.0458 13.047C13.7516 13.1661 13.4434 13.2571 13.1212 13.3202C12.7989 13.3832 12.4662 13.4148 12.1229 13.4148Z" fill="black"/>
<path d="M0 13.3097V5.95433H3.61463C4.25209 5.95433 4.82301 6.0524 5.32737 6.24854C5.83174 6.43768 6.25905 6.70037 6.60931 7.03662C6.96657 7.37286 7.23977 7.76165 7.4289 8.20297C7.61804 8.64429 7.71261 9.12063 7.71261 9.63201C7.71261 10.1434 7.61804 10.6232 7.4289 11.0716C7.23977 11.5129 6.96657 11.9017 6.60931 12.2379C6.25905 12.5741 5.82824 12.8368 5.31687 13.026C4.8125 13.2151 4.24509 13.3097 3.61463 13.3097H0ZM1.7863 12.0908L1.54462 11.7335H3.56209C3.94737 11.7335 4.28362 11.6775 4.57082 11.5654C4.85803 11.4533 5.09621 11.3027 5.28534 11.1136C5.47448 10.9174 5.61809 10.6933 5.71616 10.4411C5.81423 10.1819 5.86326 9.91221 5.86326 9.63201C5.86326 9.3448 5.81423 9.0751 5.71616 8.82292C5.61809 8.57073 5.47448 8.35007 5.28534 8.16094C5.09621 7.96479 4.85803 7.81068 4.57082 7.6986C4.28362 7.58652 3.94737 7.53048 3.56209 7.53048H1.5131L1.7863 7.19423V12.0908Z" fill="black"/>
</svg>
